<?xml version="1.0" encoding="UTF-8" ?>
<!DOCTYPE svg PUBLIC "-//W3C//DTD SVG 1.1//EN" "http://www.w3.org/Graphics/SVG/1.1/DTD/svg11.dtd">
<svg width="390pt" height="94pt" viewBox="0 0 390 94" version="1.1" xmlns="http://www.w3.org/2000/svg">
<g id="#f3f3f3f3">
<path fill="#f3f3f3" opacity="0.95" d=" M 315.53 23.20 C 319.34 18.85 323.11 14.46 327.38 10.54 C 327.41 16.02 325.48 21.23 323.00 26.04 C 329.31 29.42 334.92 34.88 341.97 36.63 C 347.45 35.33 352.23 31.99 357.56 30.19 C 354.62 34.73 351.32 39.02 347.88 43.18 C 351.74 47.91 355.17 53.13 359.84 57.13 C 364.93 60.45 371.32 60.57 377.05 62.17 C 376.89 63.36 376.73 64.56 376.58 65.76 C 362.98 66.11 349.32 65.98 335.84 64.02 C 337.60 62.81 339.38 61.62 341.15 60.41 C 338.12 57.53 335.13 54.63 332.09 51.77 C 329.71 53.57 327.33 55.36 324.95 57.16 C 325.97 59.94 326.96 62.73 327.91 65.53 C 318.38 62.32 309.25 57.09 303.11 48.96 C 309.79 48.73 315.78 51.68 321.38 54.91 C 323.43 52.89 325.49 50.87 327.52 48.83 C 317.02 43.08 303.71 40.29 296.45 30.05 C 301.98 30.92 307.47 32.11 312.96 33.22 C 312.96 31.79 312.97 30.36 312.97 28.93 C 302.85 25.43 291.65 23.40 283.26 16.24 C 294.62 15.14 304.97 19.98 315.53 23.20 M 318.35 31.53 C 317.81 33.06 317.27 34.59 316.74 36.11 C 321.50 39.00 326.01 42.40 331.12 44.62 C 333.67 44.60 335.74 42.62 337.92 41.48 C 331.84 37.34 325.24 34.06 318.35 31.53 M 336.38 47.99 C 339.35 52.52 342.75 56.73 346.06 61.02 C 349.90 60.50 353.74 59.98 357.58 59.46 C 354.17 55.54 350.58 51.73 346.61 48.37 C 343.89 45.04 339.72 47.42 336.38 47.99 Z" />
<path fill="#f3f3f3" opacity="0.95" d=" M 108.68 29.75 C 113.91 24.14 120.00 18.86 127.50 16.66 C 128.24 30.76 127.51 44.89 128.20 58.99 C 129.02 62.83 132.18 65.63 134.20 68.89 C 127.45 68.93 120.70 68.96 113.95 68.98 C 120.78 56.92 117.21 42.23 118.01 29.05 C 114.90 29.30 111.78 29.53 108.68 29.75 Z" />
<path fill="#f3f3f3" opacity="0.95" d=" M 139.05 19.12 C 149.48 18.58 160.00 17.61 170.41 18.97 C 162.20 36.84 152.50 54.02 142.60 71.01 C 140.59 70.22 138.60 69.40 136.60 68.59 C 143.41 55.24 150.77 42.17 158.06 29.07 C 150.97 29.02 143.90 28.97 136.82 28.92 C 137.55 25.65 138.29 22.39 139.05 19.12 Z" />
<path fill="#f3f3f3" opacity="0.95" d=" M 16.03 21.03 C 23.34 21.02 30.66 21.01 37.97 21.01 C 30.04 33.69 33.64 49.25 33.00 63.42 C 36.84 63.48 40.68 63.52 44.52 63.31 C 48.77 61.02 52.20 57.48 56.12 54.69 C 55.17 59.56 54.30 64.47 52.57 69.14 C 40.14 69.00 27.71 68.96 15.28 69.06 C 22.52 59.43 20.57 47.18 20.76 36.01 C 20.31 30.73 18.40 25.72 16.03 21.03 Z" />
<path fill="#f3f3f3" opacity="0.95" d=" M 54.13 20.96 C 61.41 20.99 68.69 21.00 75.97 21.02 C 69.15 31.66 70.57 44.86 71.19 56.90 C 72.20 66.96 87.87 66.89 92.77 59.88 C 95.58 47.16 96.57 32.83 90.04 21.06 C 95.27 21.01 100.49 20.95 105.72 20.89 C 96.96 33.16 102.41 49.20 97.77 62.74 C 92.02 70.91 80.99 71.90 71.96 70.18 C 66.24 68.99 60.08 64.86 59.57 58.59 C 57.84 46.12 62.19 31.89 54.13 20.96 Z" />
<path fill="#f3f3f3" opacity="0.95" d=" M 176.24 41.23 C 182.43 33.53 193.80 32.62 202.70 35.34 C 207.28 36.66 206.03 42.96 207.35 46.27 C 202.25 42.76 197.42 36.34 190.31 38.28 C 179.31 43.09 179.05 60.99 189.62 66.42 C 196.82 69.34 202.50 63.26 208.05 59.75 C 207.37 63.21 206.60 66.65 205.85 70.09 C 196.94 70.12 186.38 73.66 179.09 66.89 C 170.90 61.39 170.12 48.58 176.24 41.23 Z" />
<path fill="#f3f3f3" opacity="0.95" d=" M 223.44 34.46 C 233.58 31.89 245.15 38.37 247.36 48.66 C 250.53 60.14 239.35 71.66 227.97 70.96 C 217.77 72.78 206.98 63.51 208.12 53.00 C 207.37 44.18 214.58 35.22 223.44 34.46 M 224.41 38.37 C 214.63 42.24 214.51 57.69 221.67 64.31 C 226.38 70.28 237.39 66.51 238.03 59.00 C 241.30 50.53 235.61 35.19 224.41 38.37 Z" />
<path fill="#f3f3f3" opacity="0.95" d=" M 248.40 34.86 C 252.84 34.93 257.31 35.00 261.77 35.10 C 264.55 41.65 267.23 48.25 270.56 54.55 C 273.86 48.26 276.82 41.81 279.47 35.22 C 283.55 35.12 287.65 35.02 291.74 34.93 C 287.22 46.49 287.42 59.22 291.25 70.93 C 286.47 70.95 281.72 70.98 276.96 70.98 C 279.92 63.19 279.73 54.74 279.69 46.52 C 275.53 54.81 272.64 63.66 268.29 71.87 C 263.80 63.61 261.26 54.43 256.34 46.38 C 256.15 54.67 255.90 63.19 258.91 71.05 C 256.28 70.92 251.01 70.65 248.37 70.51 C 250.44 63.49 252.91 56.44 252.83 49.02 C 252.43 44.04 250.63 39.28 248.40 34.86 Z" />
<path fill="#f3f3f3" opacity="0.95" d=" M 155.69 58.96 C 158.40 60.61 164.56 59.15 165.73 63.31 C 167.46 68.79 159.98 74.61 155.32 70.70 C 151.74 67.55 154.51 62.59 155.69 58.96 Z" />
</g>
</svg>
